<svg xmlns="http://www.w3.org/2000/svg" id="svg8" version="1" viewBox="0 0 89 196"><defs id="defs2"/><g id="layer1" transform="translate(-57 -39)"><g id="g4560" transform="matrix(.26458 0 0 .26458 57 39)"><path id="path3717" fill="#83571c" d="M405 221c-3 0-6 2-8 4-1 4-4 7-7 9-4 5-9 9-15 11-5 3-11 5-17 6l-26 4c-8 1-16 3-23 9-4 3-8 7-10 12l-1 2-1 2-1 4v4l-1 11c0 1 0 2-2 2-8-1-17-1-25 2l-18 7a55 55 0 0 0-25 29l-1 4v3l-1 2v12l1 3 3 11 1 3 2 3 1 3 2 2c1 1 2 2 1 3l1 41v10l1 5v5l2 5 1 3v23l1 52 2 24 2 17 2 17v1l3 18 3 30 2 14a11 11 0 0 1-2 0 11 11 0 0 1-2-2l-20-16a31 31 0 0 1-2-2 31 31 0 0 1-3-3l-1-1c-2-4-2-7 0-11l14-20a44 44 0 0 0 5-6c0-3-1-4-4-3l-2 2-19 25c-4 6-4 10 0 14 0 2 2 4 3 5h1l7 6 6 5 7 5 3 2c3 2 5 4 5 7v3l-5 6c-1 2-4 2-4 5 1 3 3 1 5 1l5-3c2-1 2-4 5-4v5l1 3v6l1 3v5l1 2v5l1 4v6l1 3v7l1 3v5l1 4v6l1 4v4l1 2v4l1 4v4l1 7 1 6v11l1 1v4l1 3v6l1 3v5l1 3v5l1 4v4l1 3v4l1 4v4l1 2v4h1v4l1 3v4l1 2v5l1 3v4l1 3v3h1v4l1 2v8l-2 2v3c3 0 5 1 7-1 2 0 3-1 4-3l-1-5v-3l-1-3v-4l-1-3-1-3v-4l-1-3v-5l-1-3v-4l-1-3v-5l-1-3v-5l-1-3v-5l-1-4v-3h-1v-4l-1-4v-4l-1-3v-5l-1-3v-4l-1-3v-6-1l-3-2c-1-1-3-2-3-5 0-2 3-2 4-3h1v-1l1-3v-3l-9-66-9-77-7-60c-3-31-4-63-3-95 0-3 0-4 4-3 4 0 6-1 8-6s2-10 1-15v-16l1-9c0-2-2-3 0-3 4-1 6-4 7-7l-1-6 1-7c1-3 2-4 4-3l8 1 21 6c2 0 5 1 5 4l1 1 4-2a255 255 0 0 0 73 4l24-2c9 0 17-2 25-4v-7a299 299 0 0 1-13 3l-19 3h-4a299 299 0 0 1-10 1c-19 2-37 1-56 0a117 117 0 0 1-24-4 111 111 0 0 0-17-4 40 40 0 0 1-7-1l-35-7a18 18 0 0 0-7 0 18 18 0 0 0-3 0h-1l-2-2-1-4-3-9v-2c-1-6 0-11 1-17l2-6 3-8 4-5a48 48 0 0 1 11-11 86 86 0 0 1 17-8 57 57 0 0 1 17-3h12a4 4 0 0 1 2 0l2-1v-1l1-5a52 52 0 0 1 1-14 33 33 0 0 1 2-6l4-6a25 25 0 0 1 10-8l4-2a87 87 0 0 1 20-4 140 140 0 0 0 29-6 3 3 0 0 1 1 0 3 3 0 0 1 1 0l3-2 7-4a50 50 0 0 0 12-8 50 50 0 0 0 0-1 50 50 0 0 0 1-1 50 50 0 0 0 2-2l1-2c1-1 2-2 1-4l1-1c3-1 6 0 8 1 6 4 12 9 19 10h2c0-1-1-2-3-2-7-4-14-7-20-13l-6-2zm105 149l-1 1a100 100 0 0 0-29 7 37 37 0 0 1-7 2 37 37 0 0 1-5 0 2 2 0 0 0-1 0h-1c1 1 2 1 1 2v5l-1 13c0 2-2 4-1 6v28l1 13 2 4c2 3 5 4 8 4 4 0 6-2 7-5l2-6 2-15 4-32 2-1v-1l1-1-1-7c-1-4 2-6 6-5h4c3 0 4 2 4 5l1 5c0 4 2 7 5 9h1l1 2 1 1c2-1 1 1 1 1v17c1 15 0 29-3 43l-2 37-1 59-1 30-3 39v23l-1 3v1l2 1 2 1 4 2c4 2 7 3 11 1h-1c2-1 0-2-1-2-4-1-8-3-11-7l2-7 2-4c2-1 3-2 3-4l10-11 3-3 8-10 2-3 1-2c2-5 3-9 2-14l-1-2-3-4-15-14-12-11v-14l1-8v-10l1-7 2-28 3-33v-18l1-6v-7l1-6v-7l1-1v-7l1-6v-19c0-4 1-8-1-12 1-1-1-2-2-1-2 3-5 5-10 4-1 0-3-1-3-3s1-3 3-3l1-1-3-1zm4 200a2 2 0 0 1 1 1l17 17c6 6 7 11 4 19l-8 11c-6 8-14 14-19 23l4-71a2 2 0 0 1 1 0z" transform="translate(-215 -147)"/><path id="path3719" fill="#84571c" d="M372 721v64l-1 3c-2 4-6 5-9 7l-1 1h-3l-2-2 9-8v-3l-1-39v-22l1-13v-12l1-12v-3l1-1 2-1c2-1 2-3 3-5l2-17c2-12 3-23 3-35l2-33 1-22c0-2 0-3 2-4v7l-1 26-2 35-4 37-2 10v32l-1 1z" transform="translate(-90 -54)"/><path id="path3721" fill="#83571c" d="M413 255l-2 7-5 8h-1a60 60 0 0 0 1-15c-1-7 0-15-3-21-4-11-10-21-19-29a53 53 0 0 0-24-13 4 4 0 0 0-4 2 1 1 0 0 1-1 0h-1c0-3 0-3-3-3a1 1 0 0 1-1 0 1 1 0 0 1 1-1 3 3 0 0 1 1-1c2 0 2-1 1-3a56 56 0 0 0-13-24c-1-1-2-1-1-2a3 3 0 0 1 2-1 32 32 0 0 1 16 19l3 9a4 4 0 0 0 4 4c9 0 17 5 24 10s14 12 19 20a50 50 0 0 1 4 9l1 4 1 5a52 52 0 0 1 0 13zM270 717h-10l-8-1h-6l-21-3a283 283 0 0 1-28-7 209 209 0 0 1-29-11l-15-7a2 2 0 0 1-2-2v-1l4 1a298 298 0 0 0 38 14l21 5a4 4 0 0 0 2 0l4 1a74 74 0 0 0 14 3l17 2a13 13 0 0 0 5 0l16 1 8-1a10 10 0 0 0 4 0c10 0 21-1 31-3a3 3 0 0 1 3 0c1 1 0 1-1 2a140 140 0 0 1-16 4 174 174 0 0 1-18 2h-1l-8 1v-1 1a3 3 0 0 1-4 0z" transform="translate(-90 -54)"/><path id="path3723" fill="#c44e52" d="M327 147l1-3a7 7 0 0 0 1-3v-1c2-1 1-3 3-3l2 2a41 41 0 0 0 7 8l4 3a3 3 0 0 1 0 1l-4 7v1h-5a4 4 0 0 1-1 0l-5-3a6 6 0 0 1-1 0 20 20 0 0 0-3-3c-2-2 0-4 1-6z" class="cls-3" transform="translate(-90 -54)"/><path id="path3725" fill="#d3cdc6" d="M373 679l2-14 4-47 3-51v-2h1v13l-1 9v22l-1 5v12l-1 5v7l-1 5v7l-1 5v8l-1 8-3 8z" transform="translate(-90 -54)"/><path id="path3727" fill="#c44e52" d="M346 102l2-5 1-2c2-1 3 0 3 1l3 3a13 13 0 0 0 7 6 3 3 0 0 1 2 2l-6 12a1 1 0 0 1 0 1l-1-2a39 39 0 0 1-6-9 21 21 0 0 0-4-5zm-12 26l1-3c2-1 2-3 2-4a1 1 0 0 1 1 0l7 9a12 12 0 0 0 3 3l3 1-4 11-1 2-2-2-8-12a21 21 0 0 0-2-2 2 2 0 0 1 0-1zm27-57v-1l3-4c0-1 1-2 2-1l1 4 1 1a23 23 0 0 0 4 7 16 16 0 0 1 3 3 77 77 0 0 1-5 11l-1-1-7-11c0-2-2-2-4-2a1 1 0 0 1 0-1l1-3a11 11 0 0 0 2-2z" class="cls-3" transform="translate(-90 -54)"/><path id="path3729" fill="#c44e52" d="M363 106l-1-1c-5-1-7-5-10-8-1-1-1-2-3-2l1-3a1 1 0 0 1 1 0 85 85 0 0 0 6 9 6 6 0 0 0 5 2l1-1v-1l-8-12-2-1a18 18 0 0 1 5-9l1 3 6 8a15 15 0 0 0 4 3 2 2 0 0 1 1 1l-1 2a7 7 0 0 0-1 3 9 9 0 0 0-2 3v1l-1 2-1 1z" class="cls-3" transform="translate(-90 -54)"/><path id="path3733" fill="#c44e52" d="M343 107l1-1c2 3 3 7 6 9a35 35 0 0 0 3 4l4 3-2 6c-2 1-1 4-3 4-3-2-4-5-6-8s-3-6-6-8l2-6a25 25 0 0 1 1-3zm40-36l-1 1c-1-1-2 0-2 1l-3 4a2 2 0 0 1-2-1l-4-6a12 12 0 0 0-1-3 7 7 0 0 0-3-4c0-2 1-2 2-3a27 27 0 0 1 6-3h4v3a17 17 0 0 0 4 11zm36 21l-1 1a3 3 0 0 1-3 0c0-2-2-1-2-3v-8l1-8a1 1 0 0 1 1 0 1 1 0 0 1 1 0l3 3a1 1 0 0 1 0 1 24 24 0 0 0 4 3c2 2 2 3 0 5l-2 3z" class="cls-3" transform="translate(-90 -54)"/><path id="path3735" fill="#926b37" d="M114 363l1 3v63l2 29 3 31 1 6v3c-2-1-4-14-1-3v1c-1-2-3-1-5-2l2-4c2-2 2-4 2-7v-2l-1-3v-6l-1-3v-6l-1-1v-6l-1-5v-10l-1-8v-15-47z" transform="translate(-90 -54)"/><path id="path3739" fill="#fdfcfc" d="M353 120a34 34 0 0 1-9-14l1-2c0-1 1-2 3-1a17 17 0 0 1 4 6 46 46 0 0 0 5 9c1 1 0 2-1 2a5 5 0 0 1-3 0z" class="cls-8" transform="translate(-90 -54)"/><path id="path3743" fill="#fcf7f7" d="M383 71l-2-1c-2-4-4-8-2-13l4-1a3 3 0 0 1 1 2l3 13a4 4 0 0 1-4 0z" class="cls-9" transform="translate(-90 -54)"/><path id="path3757" fill="#8c3739" d="M380 56c4 0 9 0 13 2a1 1 0 0 1-1 1l-9-2h-4c-3-1-5 1-8 3l-2 1v-1l4-3c2-1 4-2 7-1z" transform="translate(-90 -54)"/><path id="path3761" fill="#802729" d="M358 79l-5 9a2 2 0 0 1 0 1 2 2 0 0 1-1 1 1 1 0 0 1-1-1l6-11 1-2v1a1 1 0 0 1 0 2z" transform="translate(-90 -54)"/><path id="path3763" fill="#76181a" d="M410 89l-6-5a26 26 0 0 0-3-2 4 4 0 0 1-1-2 1 1 0 0 1-1 0h1a2 2 0 0 1 1 0 62 62 0 0 1 8 6c0 1 2 1 2 3a1 1 0 0 1-1 0z" transform="translate(-90 -54)"/><path id="path3769" fill="#7e2224" d="M352 132l2-4 1 1h-1l-7 17c0-4 2-8 4-12a4 4 0 0 1 0-2 1 1 0 0 1 1 0z" transform="translate(-90 -54)"/><path id="path3771" fill="#862527" d="M421 89l2-3c2-2 1-3 0-4l-4-4 2 1a12 12 0 0 1 4 4c1 2-1 3-2 4l-2 3z" transform="translate(-90 -54)"/><path id="path3777" fill="#82282a" d="M370 94v-1a1 1 0 0 1 0-2l5-11c0-1 0-2 1-1z" transform="translate(-90 -54)"/><path id="path3783" fill="#791a1c" d="M363 106h1l-5 13h-1c0-3 2-6 4-9z" transform="translate(-90 -54)"/><path id="path3787" fill="#fdfdfd" d="M375 56c-334 649-167 324 0 0z" class="cls-5" transform="translate(-90 -54)"/><path id="path3789" fill="#e8c0c1" d="M345 145l1 2v1l-1 2c-1-2-4-1-4-3 1-1 3 0 4-2z" transform="translate(-90 -54)"/><path id="path3795" fill="#e5bdbe" d="M376 79l-1 1-3-3c1-1 3 1 4-1h1v2z" transform="translate(-90 -54)"/><path id="path3797" fill="#842e2f" d="M342 110l-2 6v1-1l2-6c0-1 0-1 0 0z" transform="translate(-90 -54)"/><path id="path3801" fill="#7c2728" d="M358 119a1 1 0 0 1 1 0 56 56 0 0 1-5 10v-1l3-6z" transform="translate(-90 -54)"/><path id="path3805" fill="#812e30" d="M395 76l-8-4c4 0 6 1 8 4z" transform="translate(-90 -54)"/><path id="path3807" fill="#7e2324" d="M324 151l1-1c0-1 0-2 2-3a10 10 0 0 1-1 3 3 3 0 0 0 1 3 1 1 0 0 1-1 1c-1 0-2-1-2-3z" transform="translate(-90 -54)"/><path id="path3811" fill="#7b1f21" d="M351 92l-1 3a10 10 0 0 1-2 2c0 1 0 0 0 0 0-2 0-4 2-5z" transform="translate(-90 -54)"/><path id="path3815" fill="#7c2829" d="M332 137c-1 1-1 3-3 3a15 15 0 0 1 3-5 2 2 0 0 1 0 2z" transform="translate(-90 -54)"/><path id="path3819" fill="#894041" d="M340 116v1c0 2 0 3-2 4h-1c0-2 2-4 3-5z" transform="translate(-90 -54)"/><path id="path3821" fill="#7a2526" d="M410 89h1c1-1 1 0 2 1s3 1 2 3a18 18 0 0 1-5-4z" transform="translate(-90 -54)"/><path id="path3825" fill="#771e1d" d="M341 158c0-3 2-5 4-7z" class="cls-27" transform="translate(-90 -54)"/><path id="path3827" fill="#84282a" d="M337 121c1 2 0 3-1 5l-1-1z" transform="translate(-90 -54)"/><path id="path3829" fill="#944748" d="M366 65l-2 1c0-2 2-3 3-4v1a2 2 0 0 1-1 2z" transform="translate(-90 -54)"/><path id="path3833" fill="#924d4e" d="M332 135h-1c1-2 1-4 3-5v1a3 3 0 0 1 0 1c-1 1 0 2-2 3z" transform="translate(-90 -54)"/><path id="path3837" fill="#7c1d1f" d="M405 65l3 3a19 19 0 0 1-6-4 1 1 0 0 1 1 0 2 2 0 0 1 2 1z" transform="translate(-90 -54)"/><path id="path3841" fill="#fcfcfc" d="M382 606v-9z" class="cls-7" transform="translate(-90 -54)"/><path id="path3847" fill="#e0bdbe" d="M348 103l-3 1 1-2z" transform="translate(-90 -54)"/><path id="path3849" fill="#771e1d" d="M336 159h5a5 5 0 0 1-2 1z" class="cls-27" transform="translate(-90 -54)"/><path id="path3851" fill="#81292b" d="M377 78v-2l2-3h1z" transform="translate(-90 -54)"/><path id="path3855" fill="#fdfdfd" d="M275 717l7-1z" class="cls-5" transform="translate(-90 -54)"/><path id="path3859" fill="#8e3d3e" d="M403 64h-2l-2-1a2 2 0 0 1 0-1 1 1 0 0 1 0-1 1 1 0 0 1 1 0l1 1z" transform="translate(-90 -54)"/><path id="path3861" fill="#8c4243" d="M329 141c1 1 0 2-1 4a3 3 0 0 1 0-1 8 8 0 0 1 1-3z" transform="translate(-90 -54)"/><path id="path3863" fill="#8a4042" d="M351 92h-1a6 6 0 0 1 1-3h1c1 2 0 3-1 3z" transform="translate(-90 -54)"/><path id="path3867" fill="#853637" d="M364 66c-1 2-1 4-3 4v-1a18 18 0 0 1 2-2z" transform="translate(-90 -54)"/><path id="path3869" fill="#fcfcfc" d="M389 467a26 26 0 0 1 0-7z" class="cls-7" transform="translate(-90 -54)"/><path id="path3871" fill="#863738" d="M416 75l1-1 2 3c-2 1-2-2-3-2z" transform="translate(-90 -54)"/><path id="path3875" fill="#812f30" d="M400 80a3 3 0 0 1-3-2 1 1 0 0 1 1-1c1 1 2 1 2 3z" transform="translate(-90 -54)"/><path id="path3877" fill="#823436" d="M387 72c-1 0-3 1-4-1h3z" transform="translate(-90 -54)"/><path id="path3881" fill="#8d3b3d" d="M367 63v-1a3 3 0 0 1 2-2v1l-1 2a1 1 0 0 1-1 0z" transform="translate(-90 -54)"/><path id="path3885" fill="#7c2427" d="M397 78a2 2 0 0 1-2-2l2 1a1 1 0 0 1 0 1z" transform="translate(-90 -54)"/><path id="path3895" fill="#8f4748" d="M342 110l1-3a3 3 0 0 1-1 3z" transform="translate(-90 -54)"/><path id="path3897" fill="#fcfcfc" d="M378 655v-5z" class="cls-7" transform="translate(-90 -54)"/><path id="path3899" fill="#7a1d1f" d="M367 99l2-4-1 4z" transform="translate(-90 -54)"/><path id="path3901" fill="#802829" d="M334 130a2 2 0 0 1 0-2z" transform="translate(-90 -54)"/><path id="path3907" fill="#fcfcfc" d="M380 631l1-5z" class="cls-7" transform="translate(-90 -54)"/><path id="path3913" fill="#852d2f" d="M367 99a4 4 0 0 1 1 0 10 10 0 0 1-2 3 4 4 0 0 1 1-3z" transform="translate(-90 -54)"/><path id="path3915" fill="#fcfcfc" d="M377 661l1-4z" class="cls-7" transform="translate(-90 -54)"/><path id="path3917" fill="#863638" d="M361 71c0 1 0 2-2 2z" transform="translate(-90 -54)"/><path id="path3919" fill="#7d191c" d="M421 89v1a5 5 0 0 1-2 2 4 4 0 0 1 2-3z" transform="translate(-90 -54)"/><path id="path3923" fill="#fcfcfc" d="M378 649l1-5z" class="cls-7" transform="translate(-90 -54)"/><path id="path3935" fill="#7d2023" d="M415 93h3z" transform="translate(-90 -54)"/><path id="path3939" fill="#771e1d" d="M345 150l1-2a4 4 0 0 1-1 3z" class="cls-27" transform="translate(-90 -54)"/><path id="path3943" fill="#803133" d="M346 148v-1l1-1z" transform="translate(-90 -54)"/><path id="path3947" fill="#fcfcfc" d="M413 255v-3z" class="cls-7" transform="translate(-90 -54)"/><path id="path3951" fill="#fcfcfc" d="M417 518l1-2z" class="cls-7" transform="translate(-90 -54)"/><path id="path3955" fill="#893536" d="M365 105l1-2z" transform="translate(-90 -54)"/><path id="path3957" fill="#7c2021" d="M380 73h-1c1-1 2-2 3-1z" transform="translate(-90 -54)"/><path id="path3963" fill="#e7c387" d="M367 302a2 2 0 0 1 1 0l1 1a16 16 0 0 0 7 10 4 4 0 0 1 0 1c1 19 2 38-3 57a102 102 0 0 0-2 19l-1 26-1 10a64 64 0 0 0 0 10l-1 41-1 18-1 41-2 29-1 41-3 43-2 22a3 3 0 0 1-1 2c-6 4-11 9-17 12l-5 3-26 10-16 4a153 153 0 0 1-17 1l-17-1c-13 0-26-2-39-4l-17-5-23-8a35 35 0 0 1-10-5c-4-4-10-5-16-5l-4-1 1-2-3-21-4-30-4-38-4-38-7-49-4-35c-2-25-2-51-2-76v-17c0-2 1-3 3-2 6 1 8 0 9-6a49 49 0 0 0 1-14 3933 3933 0 0 0 1-29c4 0 5-2 6-5l1-2c5 1 5 1 6 6a7 7 0 0 0 3 4 6 6 0 0 1 2 4 14 14 0 0 0 3 6c2 2 6 2 7-1a12 12 0 0 0 1-7 22 22 0 0 1 0-8c1-2 1-3 3-2a3 3 0 0 0 2-1l4-2c3-2 6-1 9-2 0-3 1-3 3-3a257 257 0 0 0 62 5c19-1 38-2 58-6a30 30 0 0 1 3 0h4a2 2 0 0 1 2 2c1 4 4 5 7 4 2-1 3 0 3 2a23 23 0 0 0 2 5 5 5 0 0 0 4 3 6 6 0 0 0 6-2l2-4 1 3v25a79 79 0 0 0 1 12c1 6 3 8 8 8 4 0 6-1 7-5l4-19 4-34z" transform="translate(-90 -54)"/><path id="path3965" fill="#fefefe" d="M384 278c-10 1-20 3-29 7l-12 2h-2l-3 2-15 3c-4 0-6 2-9 3l-4 1c-15 4-31 6-46 7-19 2-37 1-56 0-8 0-16-2-24-4a111 111 0 0 0-24-5l-35-7h-10c-2 0-2 0-3-2-10-23-4-48 17-62 11-7 22-11 34-11h12l3 1c11 5 24 9 36 11l14 2c6 1 12 2 18 1l-7-1h-1l-7-1-13-2-15-4-22-7c-1 0-2 0-2-2l1-5 1-14c2-11 9-19 20-22l20-4c10-1 20-3 29-6h4c3 3 7 4 10 5a94 94 0 0 0 20 4l-9-1-17-7c-1-1-3-1-3-3l7-4c6-3 12-8 16-14h1c4 6 11 8 17 10l16 7c11 6 18 15 23 27l1 6 5 8-3 2a168 168 0 0 1-27 8l12-1a219 219 0 0 0 25-8l5 1c3 0 5 1 7 3l9 7c2 1 3 2 3 4l1 5 1 2 1 1 1-2h1c3 4 6 7 6 12v2l-4 3-1 2 3-2 4-2 2 4c1 11 2 23-2 34z" transform="translate(-90 -54)"/><path id="path3967" fill="#442b0c" d="M184 307a3 3 0 0 1-4 1l-3 1c-3 0-5 4-9 3l-1 1a34 34 0 0 0 0 9 16 16 0 0 1-1 6c-1 2-2 4-4 4a5 5 0 0 1-6-3 14 14 0 0 1-1-3l-4-7c-2-1-1-3-2-5 0-2 0-3-2-3a7 7 0 0 1-3-1c-2-2-1-5-1-8a19 19 0 0 1 1-4c1-4 2-4 6-4l21 6c3 0 7 0 10 2 2 1 3 2 3 5zm126-11l14-5c6 0 12-2 17-4h1l2 1-1 2-1 2a87 87 0 0 1 0 16l-2 5-2 4c-1 3-4 3-6 3s-4-1-5-4l-2-7a11 11 0 0 1-4 1c-3 0-5-1-5-4-1-2-1-3-3-2a5 5 0 0 1-3-1c-2-3-1-5 0-7z" class="cls-55" transform="translate(-90 -54)"/><path id="path3969" fill="#b2915f" d="M150 674c7 0 14 1 19 5 6 4 13 6 20 8l13 6a10 10 0 0 1 6 4c1 2 0 4-2 4a17 17 0 0 0-4 1c-3 1-5-1-8-1a13 13 0 0 1-3-1 5 5 0 0 0-3-1l-22-10a80 80 0 0 1-15-10c-1-1-2-2-1-4z" class="cls-56" transform="translate(-90 -54)"/><path id="path3971" fill="#754e19" d="M336 159l3 1a51 51 0 0 1 14 22l1 3c1 4 1 4-4 5l-1-2-3-8c-3-10-9-17-19-21l-17-6-10-5-21-13c-1 0-1 2-2 1v-1l2-2c4-1 7 0 10 2 4 2 7 6 11 7l9 3 15 6a5 5 0 0 0 3 3l3 1a14 14 0 0 0 5 3z" transform="translate(-90 -54)"/><path id="path3973" fill="#6f4918" d="M191 699a6 6 0 0 0 3 1l-1 1-14-4a238 238 0 0 1-27-11l-5-3c-1-2-3-3-2-6 1-2 3-2 5-2-1 3 3 5 5 6 8 7 17 10 27 14l6 3z" transform="translate(-90 -54)"/><path id="path3975" fill="#d9d4ce" d="M279 135h2c5 5 12 8 18 12a7 7 0 0 1 1 0l10 5a15 15 0 0 1 2 2v2c-3 0-5-2-7-3l-16-6c-4-1-7-4-10-7l-1-1z" transform="translate(-90 -54)"/><path id="path3977" fill="#d4d4d4" d="M179 210c1 2 4 2 6 3a175 175 0 0 0 27 8l5 2a2 2 0 0 0 1 0l3 1-3 1-4-1c-6 0-12-2-17-4l-20-7a6 6 0 0 0-2-1z" class="cls-60" transform="translate(-90 -54)"/><path id="path3979" fill="#e0dfde" d="M255 157c1 2 4 3 6 4a116 116 0 0 0 14 5v1c-8-1-16-2-22-8h-3c1-2 3-3 5-2z" transform="translate(-90 -54)"/><path id="path3981" fill="#8b612a" d="M120 495l-2 4c0-2-2-3-4-2l-2 1 3-4c2 0 4-2 5 1z" transform="translate(-90 -54)"/><path id="path3983" fill="#8e642f" d="M122 581l-4 3a6 6 0 0 1-3 0c-2 0-2-1-1-2l3-2c-1 2 0 2 2 2z" transform="translate(-90 -54)"/><path id="path3985" fill="#b2915f" d="M151 672l-1 2c-1-1 0-1 1-2z" class="cls-56" transform="translate(-90 -54)"/><path id="path3987" fill="#754d19" d="M382 565c-2 2-1 5-1 8l-1 14-2 34-1 13-2 25-2 16c-1 3-2 5-4 6a1 1 0 0 1 0-1 10 10 0 0 1 1-2c1-3-1-5-3-6a1 1 0 0 0-2 1l-1 2a2 2 0 0 1-1 0 13 13 0 0 1 0-4l3-28 2-20 2-33 1-22a792 792 0 0 1 4-53l2-29 1-20 2-28 1-24 2-24 2-30 3-34 1-7a10 10 0 0 0 0-4 12 12 0 0 1 0-2 3 3 0 0 1 1-2l1-2a1 1 0 0 1 2-1v37a175 175 0 0 1-2 23l-3 21a72 72 0 0 0 0 13 844 844 0 0 1-1 61l-1 31-1 25-2 28v14a4 4 0 0 1-1 4z" transform="translate(-90 -54)"/><path id="path3989" fill="#d3ccc4" d="M383 231v-1l-6-11h-1l-1-2-1-2a2 2 0 0 0-2-1 1 1 0 0 1 0-1l-8-7c-3-3-6-6-11-7h-6c2-3 5-5 9-5a29 29 0 0 1 14 4c14 8 25 19 31 34 3 10 2 19-1 29-2 5-4 10-8 15-1 1-1 2-3 2h-5c-1-3 0-7 1-10 3-7 2-14 2-21l-1-11-2-1a1 1 0 0 1 0-1 7 7 0 0 1 1-2h-2a1 1 0 0 1 0-1z" transform="translate(-90 -54)"/><path id="path3993" fill="#744d19" d="M389 278c4-3 6-8 8-12 5-11 7-22 3-34a57 57 0 0 0-15-23l-8-6c-6-5-14-8-21-9h-1c1-3 3-3 4-2a40 40 0 0 1 19 8l11 8a73 73 0 0 1 16 27 28 28 0 0 1 1 9l1 19a44 44 0 0 1-2 8v1l-6 7a3 3 0 0 0-1 2c-1 2-4 5-6 5h-3c-4 0-6-2-5-6l2-1z" transform="translate(-90 -54)"/><path id="path3995" fill="#c6a56f" d="M376 313c-4-2-6-5-7-8a4 4 0 0 0-1-3h1c3-3 3-7 4-11 0-1-1-2 1-2h1c3 1 6 3 5 7l1 5c0 2-2 2-2 3z" class="cls-67" transform="translate(-90 -54)"/><path id="path3997" fill="#aa895a" d="M376 313a25 25 0 0 1 2-10c2 0 2 2 3 3 2 2 4 3 6 1a5 5 0 0 1 2 1 5 5 0 0 1 1 1v4c-4 3-11 3-14 0z" class="cls-68" transform="translate(-90 -54)"/><path id="path3999" fill="#784f19" d="M389 308h-2c-4 0-6-2-7-6l-1-9a2 2 0 0 0-1-1 5 5 0 0 1-3-3l1-2a8 8 0 0 1 7 7l1 6a10 10 0 0 0 5 8z" transform="translate(-90 -54)"/><path id="path4001" fill="#784e19" d="M374 289l-2 8c0 2-1 4-3 5l-2-11c0-2 2-2 3-3 1 0 3-2 4 1z" transform="translate(-90 -54)"/><path id="path4003" fill="#d2cbc2" d="M398 281c0-1-2-1-1-2l8-7-2 4-4 5z" transform="translate(-90 -54)"/><path id="path4005" fill="#cba86f" d="M390 309a2 2 0 0 1-1-1c1 0 1-1 1 1z" transform="translate(-90 -54)"/><path id="path4007" fill="#c6a56f" d="M367 302l-2 1z" class="cls-67" transform="translate(-90 -54)"/><path id="path4009" fill="#734c17" d="M369 680v1l-2 1h-1c-1 3-3 4-4 5-6 6-13 9-20 13a140 140 0 0 1-15 6l-9 3-15 2-8 1h-12a3 3 0 0 1-3 0c2-2 4-1 7-2l11-1a115 115 0 0 0 22-7c12-5 24-11 35-20a31 31 0 0 0 3-2v-1l6-4v2c-1 2-1 2 1 3z" transform="translate(-90 -54)"/><path id="path4011" fill="#ccc4ba" d="M327 706l5-2a150 150 0 0 0 28-16 27 27 0 0 0 6-6c2 1 1 2 0 3-2 0-3 2-4 3a92 92 0 0 1-14 10 81 81 0 0 0-11 4 22 22 0 0 0-7 3z" transform="translate(-90 -54)"/><path id="path4013" fill="#9e7b4e" d="M361 795a5 5 0 0 1-3 1l-3-1 2-2 1 2z" transform="translate(-90 -54)"/><path id="path4015" fill="#d3cdc5" d="M312 156c2-2-1-3-2-3l-8-4-2-2c9 5 19 8 28 12a31 31 0 0 1 19 20l3 11 1 1-2 2-7 5-1-2c-3-1-4-3-5-6a123 123 0 0 0-5-14 43 43 0 0 0-17-19 19 19 0 0 1-2-1z" transform="translate(-90 -54)"/><path id="path4017" fill="#b4afa9" d="M342 197l2-2 7-4a6 6 0 0 1 4 3 3 3 0 0 1 1 0c-4 0-6 3-9 5-2 0-4 0-5-2z" transform="translate(-90 -54)"/><path id="path4019" fill="#a89c8c" d="M355 194l-4-3a3 3 0 0 1 1-1l3 1z" transform="translate(-90 -54)"/><path id="path4021" fill="#78511e" d="M256 712h-10l-24-4a18 18 0 0 1-3-1h4l11 2a8 8 0 0 0 2 0 11 11 0 0 1 2 0l17 2a2 2 0 0 1 1 1z" transform="translate(-90 -54)"/><path id="path4023" fill="#beae99" d="M256 712h-1c1-2 2-2 3-2h24c2 0 4-1 5 1l-7 1a149 149 0 0 1-24 0z" transform="translate(-90 -54)"/><path id="path4025" fill="#764f1c" d="M193 701a1 1 0 0 0 1-1l8 2 6 1 6 2 2 1a2 2 0 0 1-2 0l-19-4z" class="cls-81" transform="translate(-90 -54)"/><path id="path4027" fill="#b6a38a" d="M216 706l-2-1 3-1 17 4 1 1h-1l-14-2a9 9 0 0 0-4-1z" class="cls-82" transform="translate(-90 -54)"/><path id="path4029" fill="#fdfbfb" d="M332 135l2-3h2c3 5 5 9 9 13 0 4-3 2-4 2-4-3-7-6-9-10z" class="cls-83" transform="translate(-90 -54)"/><path id="path4031" fill="#6f120e" d="M335 158a6 6 0 0 1-5-3 22 22 0 0 1 5 3z" transform="translate(-90 -54)"/><path id="path4033" fill="#701510" d="M330 155l-3-1v-1z" transform="translate(-90 -54)"/><path id="path4035" fill="#e7bcbd" d="M358 119l-1 3-4-2h3l1-2z" transform="translate(-90 -54)"/><path id="path4037" fill="#fdfcfd" d="M338 121l2-4v-1a5 5 0 0 1 4 3l8 13a2 2 0 0 0 0 1h-5c-4-2-6-6-8-10a15 15 0 0 1-1-2z" transform="translate(-90 -54)"/><path id="path4039" fill="#eac4c5" d="M347 133h5l-1 1z" class="cls-88" transform="translate(-90 -54)"/><path id="path4041" fill="#e9c4c5" d="M336 132h-2v-1z" transform="translate(-90 -54)"/><path id="path4043" fill="#fcf7f7" d="M365 91l-6-9c-1-2-2-3 0-4a3 3 0 0 1 4 1l7 11-2 1a6 6 0 0 1-3 0z" class="cls-9" transform="translate(-90 -54)"/><path id="path4045" fill="#f2dadb" d="M376 76c0 1 0 2-2 1a11 11 0 0 0-2 0 17 17 0 0 1-5-7c1-2 2-2 5-1z" transform="translate(-90 -54)"/><path id="path4047" fill="#eecfd0" d="M372 69c-2 0-3-1-5 1v-1c0-2-2-3 0-4s3 1 4 2a3 3 0 0 1 1 2z" transform="translate(-90 -54)"/><path id="path4049" fill="#e6b7b8" d="M371 67c-1-1-2-2-3-1-2 0-1 2-1 3a7 7 0 0 1-1-4l1-2c3 0 3 2 4 4z" transform="translate(-90 -54)"/><path id="path4051" fill="#eac4c5" d="M365 91c1-1 3 1 5-1v3c-3 0-4-1-5-2z" class="cls-88" transform="translate(-90 -54)"/><path id="path4053" fill="#efd3d3" d="M363 79c-4-2-5-1-4 3a4 4 0 0 1-1-3v-2c2-1 4-1 5 2z" transform="translate(-90 -54)"/><path id="path4055" fill="#fdfcfc" d="M351 92l1-3h1a2 2 0 0 1 2 0l9 12c1 2 1 3-1 3a6 6 0 0 1-5-2z" class="cls-8" transform="translate(-90 -54)"/><path id="path4057" fill="#f0d5d6" d="M355 89h-2v-1z" class="cls-94" transform="translate(-90 -54)"/><path id="path4059" fill="#fdfbfb" d="M413 71a3 3 0 0 1 0 1c0 1 2 1 1 2v7l-1 2a4 4 0 0 1-4 0 16 16 0 0 1-2-7c0-2 1-5 3-6 1 0 2 2 3 1z" class="cls-83" transform="translate(-90 -54)"/><path id="path4061" fill="#ebc8c9" d="M413 82a1 1 0 0 1 1-1v7l-1 2-2-1-3-3a3 3 0 0 1 0-3 1 1 0 0 1 1 0l2 3c2 0 1-3 2-4z" transform="translate(-90 -54)"/><path id="path4063" fill="#7d2829" d="M414 74l-1-2 3 2z" transform="translate(-90 -54)"/><path id="path4065" fill="#c44e52" d="M397 77l-2-1c-2-2-5-4-8-4v-1l-4-14a19 19 0 0 1 10 2l5 2-1 3a15 15 0 0 0-1 3 7 7 0 0 0 0 4 15 15 0 0 0 1 2z" class="cls-3" transform="translate(-90 -54)"/><path id="path4067" fill="#a5855b" d="M114 582l1 2h3a4 4 0 0 1-3 1l-3-1c-1-1 1-2 2-2z" transform="translate(-90 -54)"/><path id="path4069" fill="#852a2c" d="M398 61l-5-2v-1a18 18 0 0 1 6 3v1a1 1 0 0 1-1-1z" transform="translate(-90 -54)"/><path id="path4071" fill="#c65458" d="M408 83v3l-7-6a36 36 0 0 1 0-16h1a34 34 0 0 1 6 4l3 3c-3 1-3 3-3 5z" transform="translate(-90 -54)"/><path id="path4073" fill="#efd2d2" d="M401 64l1 15-1 1h-1a3 3 0 0 0-3-2v-1l-1-4h2c1 1 2 0 2-1v-4l-1-3c-1-1-1 1-2 1l-1 1a4 4 0 0 1 0-3c1-1 1-3 3-2z" transform="translate(-90 -54)"/><path id="path4075" fill="#832d2f" d="M411 71l-3-3a21 21 0 0 1 4 3z" transform="translate(-90 -54)"/><path id="path4077" fill="#e4b6b7" d="M399 62l-3 2a3 3 0 0 1 2-3z" transform="translate(-90 -54)"/><path id="path4079" fill="#c09f6a" d="M359 680h-1l-7 6a7 7 0 0 1-5 1 26 26 0 0 0-7 0h-4l12-7c3-1 4-5 7-6s3-3 3-6l2-20 2-18a575 575 0 0 0 2-57l2-37 1-21 1-34 1-33v-18a32 32 0 0 1 1-3v-9a3 3 0 0 1 2-2c3-2 7-5 11-2l-2 26v11l-3 45-2 28-2 31-2 19-2 43-1 20-4 34a1 1 0 0 1-1 1c-4 1-4 1-3 5z" transform="translate(-90 -54)"/><path id="path4081" fill="#c4a36e" d="M382 414h-1c-4-1-7 1-10 2-2 2-1 4-2 6v5l1-32c0-13 2-24 4-36a77 77 0 0 0 2-15v-31c4 1 9 3 14 0v2l-1 3-2 27-2 24-3 37z" transform="translate(-90 -54)"/><path id="path4083" fill="#ba9a65" d="M335 687l5-1h7c1 1 3 0 4-1l7-5-13 10a178 178 0 0 1-24 12c-3 0-5 2-8 3l-15 4a59 59 0 0 1-11 2h-19a1 1 0 0 1 0-1c2-2 2-4-2-5-2-1-4-3-7-3v-1l16 1a116 116 0 0 0 14-1l13-2 18-6a87 87 0 0 0 13-5 10 10 0 0 1 2-1z" transform="translate(-90 -54)"/><path id="path4085" fill="#b59462" d="M259 701c3 1 5 3 8 3l4 4c1 1-2 2-3 3h-10l-3 1-17-2h-2a2 2 0 0 1-2-1 3 3 0 0 0 1 0l-11-3-7-1h-3a90 90 0 0 1-12-3l4-1a2 2 0 0 0 2-2 2 2 0 0 0-1-2l-4-4h-1l16 4 26 3z" transform="translate(-90 -54)"/><path id="path4087" fill="#442b0c" d="M295 520c-5 0-8-2-9-5a5 5 0 0 1 0-3c2-5 10-7 13-3a15 15 0 0 1 2 2c2 4 1 7-3 8a26 26 0 0 1-3 1zm-85 1c-5 0-8-3-8-8a3 3 0 0 1 2-3 12 12 0 0 1 11 0c2 1 2 3 2 6a5 5 0 0 1-3 4 8 8 0 0 1-4 1z" class="cls-55" transform="translate(-90 -54)"/><path id="path4089" fill="#462d0e" d="M241 519v-1l1-2a2 2 0 0 1 3 2l1 5 2 2 2-2a9 9 0 0 0 0-5c-1-1-1-2 1-3s3 0 3 2c1 2 1 7-1 9-3 2-6 2-9 0-3-1-3-4-3-7z" transform="translate(-90 -54)"/><path id="path4091" fill="#d4d4d4" d="M342 197l5 2a121 121 0 0 1-24 7l-5 1-2-1 1-1 21-7 3-2z" class="cls-60" transform="translate(-90 -54)"/><path id="path4093" fill="#d54585" d="M348 231a34 34 0 0 1-3-9c-1-1-1-3 1-3 1 0 3 0 3 2l3 9-1 2c-1 1-2 0-3-1z" transform="translate(-90 -54)"/><path id="path4095" fill="#d54686" d="M208 279l-6-7-1-1 2-1 4 2 5 7-2 1z" transform="translate(-90 -54)"/><path id="path4097" fill="#ddd" d="M214 224h6c0-2-2 0-3-1l14 2 8 1 1 1h-1l-11-1a80 80 0 0 1-14-2z" transform="translate(-90 -54)"/><path id="path4099" fill="#d54786" d="M242 193l-3-4c-1-1-2-3 0-3a3 3 0 0 1 4 1 43 43 0 0 1 2 4c0 3 0 3-3 2z" transform="translate(-90 -54)"/><path id="path4101" fill="#d64b89" d="M227 259l-3-5-1-2a2 2 0 0 1 3-1 4 4 0 0 1 2 2 25 25 0 0 1 3 5c-1 2-2 2-4 1z" transform="translate(-90 -54)"/><path id="path4103" fill="#d49d42" d="M249 214l-4-4c-1-1-2-2 0-3a2 2 0 0 1 3 1l3 5v1z" class="cls-113" transform="translate(-90 -54)"/><path id="path4105" fill="#e17ba8" d="M200 191l-2-6v-3a2 2 0 0 1 3 1l2 6c0 2-1 2-3 2z" transform="translate(-90 -54)"/><path id="path4107" fill="#e8e8e8" d="M228 226l10 1c2 0 1-1 1-1 3 0 7-1 10 1-7 2-14 1-21-1z" class="cls-115" transform="translate(-90 -54)"/><path id="path4109" fill="#8372a4" d="M175 229l1-5c0-2 2-1 3-1v2l-1 5a2 2 0 0 1-2 1z" transform="translate(-90 -54)"/><path id="path4111" fill="#513880" d="M127 259l-3-3-1-1 2-1c3 0 4 2 5 4s0 2-1 2z" transform="translate(-90 -54)"/><path id="path4113" fill="#e695b9" d="M200 191l3-2 2 7v1a2 2 0 0 1-3 0 22 22 0 0 1-2-6z" transform="translate(-90 -54)"/><path id="path4115" fill="#e079a7" d="M284 189l-4-4v-1l2-1c2 0 3 3 4 5 0 2 0 2-2 1z" transform="translate(-90 -54)"/><path id="path4117" fill="#dedddd" d="M317 205l-1 1 2 1 5-1c-4 2-8 2-12 2h-2l1-2z" transform="translate(-90 -54)"/><path id="path4119" fill="#d8a755" d="M281 154l3-4h3v2l-3 3c-2 0-3 1-3-1z" transform="translate(-90 -54)"/><path id="path4121" fill="#d19735" d="M323 179l-4-2-1-2 3-1 4 4 1 1a1 1 0 0 1-2 1z" transform="translate(-90 -54)"/><path id="path4123" fill="#e9e8e8" d="M275 167v-1l11 2v1c-4 1-8 0-11-2z" transform="translate(-90 -54)"/><path id="path4125" fill="#df71a1" d="M150 238a23 23 0 0 1-1-2v-3a2 2 0 0 1 3 1l2 4c1 1 0 2-2 2z" transform="translate(-90 -54)"/><path id="path4127" fill="#df70a1" d="M297 156c-1-2 0-2 2-2l1 2-1 4c-2 1-3 1-3-1z" transform="translate(-90 -54)"/><path id="path4129" fill="#d6a34c" d="M252 250l-5-3-1-1 2-1a4 4 0 0 1 4 2l2 2c0 3-1 2-2 1z" transform="translate(-90 -54)"/><path id="path4131" fill="#dc659a" d="M227 259c1 0 3 1 4-1l2 4c0 3-1 3-3 2a21 21 0 0 1-3-5z" transform="translate(-90 -54)"/><path id="path4133" fill="#9081ae" d="M278 220l-2-4c-1 0-2-1 0-2a2 2 0 0 1 3 1l1 4c0 2-1 1-2 1z" transform="translate(-90 -54)"/><path id="path4135" fill="#a99ec0" d="M239 174l-7-5c2-1 4-1 9 4z" transform="translate(-90 -54)"/><path id="path4137" fill="#78649c" d="M343 272l-5-3-1-1 2-1a9 9 0 0 1 6 3l1 1c-1 2-2 1-3 1z" transform="translate(-90 -54)"/><path id="path4139" fill="#d49d42" d="M169 259a18 18 0 0 1-7 3l-2-1 2-1c2-1 4-2 7-1z" class="cls-113" transform="translate(-90 -54)"/><path id="path4141" fill="#d8548e" d="M342 250c-1 1-1 3-3 3l-2-1 1-2 2-1c1-1 3-1 2 1z" transform="translate(-90 -54)"/><path id="path4143" fill="#a093b9" d="M218 201l-1-4a1 1 0 0 1 2-1 1 1 0 0 1 1 1v4c-1 2-2 2-2 0z" transform="translate(-90 -54)"/><path id="path4145" fill="#a194ba" d="M311 194l-4 4-3-1a24 24 0 0 1 6-4c1 0 2-1 1 1z" transform="translate(-90 -54)"/><path id="path4147" fill="#e281ac" d="M296 159a3 3 0 0 0 3 1l-1 4a2 2 0 0 1-3 1 1 1 0 0 1 0-1 9 9 0 0 1 1-5z" class="cls-134" transform="translate(-90 -54)"/><path id="path4149" fill="#e487b0" d="M230 264c2 0 3 0 3-2l2 4v2a2 2 0 0 1-3-1 8 8 0 0 1-2-3z" transform="translate(-90 -54)"/><path id="path4151" fill="#dfb671" d="M374 253l-1 4a2 2 0 0 1-2 1l-1-2v-3z" transform="translate(-90 -54)"/><path id="path4153" fill="#da5c94" d="M286 248l-4 2-2-1c-1-1 1-1 1-1a13 13 0 0 1 2-1c1-1 3-2 3 1z" transform="translate(-90 -54)"/><path id="path4155" fill="#d8548f" d="M196 243a6 6 0 0 1-1 1c-2 1-3 2-4 1-1-2 1-2 1-3a10 10 0 0 1 2-1c2 0 2 1 2 2z" transform="translate(-90 -54)"/><path id="path4157" fill="#e27fab" d="M150 238l3 1 1-1a10 10 0 0 1 2 4c-1 2-2 0-3 0z" transform="translate(-90 -54)"/><path id="path4159" fill="#debf88" d="M375 214v3a1 1 0 0 1 0 2 1 1 0 0 1-2-1c-1-1-2-3-1-5a3 3 0 0 1 2 1 10 10 0 0 1 0 1z" transform="translate(-90 -54)"/><path id="path4161" fill="#dd679b" d="M342 250c0-2-1-1-2-1l3-3 3-1v2z" transform="translate(-90 -54)"/><path id="path4163" fill="#746099" d="M311 240a3 3 0 0 1-2-2l2-1a2 2 0 0 1 2 1l1 1c0 2 0 2-3 1z" transform="translate(-90 -54)"/><path id="path4165" fill="#e385af" d="M346 247c0-3-2-1-3-1l3-3c3-1 3-1 3 1z" transform="translate(-90 -54)"/><path id="path4167" fill="#e693b8" d="M196 239l4-3a2 2 0 0 1 1 1v1c-1 1-1 2-3 2z" transform="translate(-90 -54)"/><path id="path4169" fill="#afa4c4" d="M218 201a2 2 0 0 0 2 0v3l-1 2-1-2a7 7 0 0 1 0-3z" transform="translate(-90 -54)"/><path id="path4171" fill="#de6fa0" d="M196 239c1 1 2-1 2 1l-2 3c-1-3-3 0-4-1z" transform="translate(-90 -54)"/><path id="path4173" fill="#ddb269" d="M249 214c1 0 2 1 2-1a4 4 0 0 1 2 2v2a2 2 0 0 1-2-1z" transform="translate(-90 -54)"/><path id="path4175" fill="#8473a4" d="M384 234a3 3 0 0 0 0 1l-3 2c-1 0-2 1-2-1a14 14 0 0 1 3-4c0 2 1 1 2 2z" transform="translate(-90 -54)"/><path id="path4177" fill="#d49f44" d="M326 225c-1-1-3-1-2-2 0-2 2-1 4 0a6 6 0 0 1 1 1v1a3 3 0 0 1-3 0z" transform="translate(-90 -54)"/><path id="path4179" fill="#e078a6" d="M286 248c-1-2-2-1-3-1l3-3c2-1 2-1 2 1z" transform="translate(-90 -54)"/><path id="path4181" fill="#ada2c3" d="M278 220l2-1 1 2c0 1 2 1 1 2s-2 0-3-1a21 21 0 0 1-1-2z" transform="translate(-90 -54)"/><path id="path4183" fill="#e9cd9e" d="M373 218c1 1 2 0 2-1l1 2c0 1 1 3-1 3s-1-1-2-2z" transform="translate(-90 -54)"/><path id="path4185" fill="#e89bbd" d="M284 189l2-1a9 9 0 0 1 1 1c1 1 2 2 1 3s-2 0-3-1a3 3 0 0 1-1-2z" class="cls-153" transform="translate(-90 -54)"/><path id="path4187" fill="#de6d9f" d="M348 231c2 0 3 3 4-1 0 1 2 3 0 4s-3-1-4-2a3 3 0 0 1 0-1z" transform="translate(-90 -54)"/><path id="path4189" fill="#e7c997" d="M370 256c0 2 1 3 3 1v3a1 1 0 0 1-2 1l-1-2z" transform="translate(-90 -54)"/><path id="path4191" fill="#9f91b8" d="M175 229c1 2 2 2 3 1a19 19 0 0 1-1 3h-2v-1z" transform="translate(-90 -54)"/><path id="path4193" fill="#dcb167" d="M326 225c1-1 3 1 3-1l3 2c-1 2-1 2-3 1z" transform="translate(-90 -54)"/><path id="path4195" fill="#d95992" d="M208 279c1 0 3 2 4 0l2 2c-1 2-3 1-4 1a6 6 0 0 1-2-3z" transform="translate(-90 -54)"/><path id="path4197" fill="#df72a2" d="M242 193c2 0 3 0 3-2v1c0 1 2 2 1 3s-3 0-4-2z" transform="translate(-90 -54)"/><path id="path4199" fill="#d49e43" d="M374 253h-4v-1a4 4 0 0 1 4 0z" transform="translate(-90 -54)"/><path id="path4201" fill="#76639b" d="M304 197l3 1-1 2-3-1z" transform="translate(-90 -54)"/><path id="path4203" fill="#deb46e" d="M281 154l3 1a4 4 0 0 1-2 2c-3 1-3 1-3-1z" transform="translate(-90 -54)"/><path id="path4205" fill="#eba7c5" d="M295 164c0 2 2 1 3 0-1 2-2 4-3 3-2-1-1-2 0-3z" transform="translate(-90 -54)"/><path id="path4207" fill="#e6c691" d="M329 227c1 0 2 1 3-1 0 1 2 2 0 3s-2-1-3-2z" transform="translate(-90 -54)"/><path id="path4209" fill="#7c699f" d="M127 259c1 0 3 2 3-1 1 1 2 2 1 3s-2 0-3-1a11 11 0 0 1-1-1z" transform="translate(-90 -54)"/><path id="path4211" fill="#9a8cb5" d="M379 236l2 1a4 4 0 0 1-5 1z" transform="translate(-90 -54)"/><path id="path4213" fill="#d5a046" d="M323 179h2v-1l3 1c0 3-1 2-3 2z" transform="translate(-90 -54)"/><path id="path4215" fill="#dcaf64" d="M325 181c1-1 3 0 3-2l2 2c-2 2-3 1-5 0z" transform="translate(-90 -54)"/><path id="path4217" fill="#dbae62" d="M252 250c1 0 2 1 2-1l2 2c0 2-1 1-3 1z" transform="translate(-90 -54)"/><path id="path4219" fill="#9282af" d="M316 241l1 1c1 2 0 2-1 1a10 10 0 0 1-3-2z" transform="translate(-90 -54)"/><path id="path4221" fill="#9889b3" d="M343 272l3-1 1 2h-2a12 12 0 0 1-2-1z" transform="translate(-90 -54)"/><path id="path4223" fill="#e89bbd" d="M153 242h3l1 2a2 2 0 0 1-3-1 4 4 0 0 1-1-1z" class="cls-153" transform="translate(-90 -54)"/><path id="path4225" fill="#e383ae" d="M210 282l4-1 1 2h-2a4 4 0 0 1-3-1z" transform="translate(-90 -54)"/><path id="path4227" fill="#bbb1cd" d="M311 194l-1-1a3 3 0 0 1 0-1h3c1 1-1 1-2 2z" transform="translate(-90 -54)"/><path id="path4229" fill="#806ea2" d="M316 241c-1 2-2 0-3 0l-2-1c1 0 3 1 3-1z" transform="translate(-90 -54)"/><path id="path4231" fill="#736092" d="M384 234c-1 0-2 0-2-2l1-1a5 5 0 0 1 2 2z" transform="translate(-90 -54)"/><path id="path4233" fill="#e4c187" d="M279 156c1 2 2 0 3 1a3 3 0 0 1-2 1h-2c-1-1 0-2 1-2z" transform="translate(-90 -54)"/><path id="path4235" fill="#e4c28a" d="M253 252l3-1s2 1 1 2a2 2 0 0 1-4-1z" transform="translate(-90 -54)"/><path id="path4237" fill="#eba8c6" d="M288 245c0-2-1 0-2-1a3 3 0 0 1 2-1h2z" transform="translate(-90 -54)"/><path id="path4239" fill="#e8e8e8" d="M239 226a18 18 0 0 1-8-1 22 22 0 0 1 8 1z" class="cls-115" transform="translate(-90 -54)"/><path id="path4241" fill="#bab0cc" d="M239 174l2-1a3 3 0 0 1 2 1 3 3 0 0 1-4 0z" transform="translate(-90 -54)"/><path id="path4243" fill="#eaa3c2" d="M349 244c-1-2-2 0-3-1a2 2 0 0 1 3-1z" transform="translate(-90 -54)"/><path id="path4245" fill="#aca0c2" d="M316 243l1-1 1 1a2 2 0 0 1-2 0z" transform="translate(-90 -54)"/><path id="path4247" fill="#d4d4d4" d="M348 199h5z" class="cls-60" transform="translate(-90 -54)"/><path id="path4249" fill="#e281ac" d="M297 156l-1 3a4 4 0 0 1 1-3z" class="cls-134" transform="translate(-90 -54)"/><path id="path4251" fill="#764f1c" d="M191 699a3 3 0 0 1-3-1 3 3 0 0 1 3 1z" class="cls-81" transform="translate(-90 -54)"/><path id="path4253" fill="#6b4716" d="M369 680a9 9 0 0 1-5 0c-3 0-3-1-1-3l1-2c1-1-1-5 3-3s5 3 3 7a7 7 0 0 1-1 1z" transform="translate(-90 -54)"/><path id="path4255" fill="#b89763" d="M359 680v-4c-2-2-1-4 2-4a15 15 0 0 1 3-1v4z" transform="translate(-90 -54)"/><path id="path4257" fill="#aa895a" d="M389 318l1-3z" class="cls-68" transform="translate(-90 -54)"/><path id="path4259" fill="#5e4874" d="M385 233c-1 0-2 0-2-2a2 2 0 0 1 2 0l2 1z" transform="translate(-90 -54)"/><path id="path4261" fill="#c09e69" d="M375 214c-1 1 0 2-1 1l-2-2z" transform="translate(-90 -54)"/><path id="path4263" fill="#bb9a65" d="M380 302c1 3 3 5 7 6-3 1-6 0-8-4l-1-1z" transform="translate(-90 -54)"/><path id="path4265" fill="#baa688" d="M298 709l1-1 14-4 5-1 2-1a95 95 0 0 1-22 7z" transform="translate(-90 -54)"/><path id="path4267" fill="#b6a38a" d="M236 710h2z" class="cls-82" transform="translate(-90 -54)"/><path id="path4269" fill="#f6e6e7" d="M413 82v4a2 2 0 0 1-3 0c-2 0-1-2-1-3a11 11 0 0 0 4-1zm-5 1v-7l1 7z" transform="translate(-90 -54)"/><path id="path4271" fill="#f8ebec" d="M396 67a7 7 0 0 1 1-2 3 3 0 0 1 3 0l1 2v5c-3 1-4 1-5-1a6 6 0 0 1 0-4z" transform="translate(-90 -54)"/><path id="path4273" fill="#f0d5d6" d="M396 71c1 2 3 1 5 1-1 3-2 3-5 1a2 2 0 0 1 0-2z" class="cls-94" transform="translate(-90 -54)"/></g></g></svg>